<?xml version="1.0" encoding="utf-8"?>
<!-- Generator: Adobe Illustrator 21.1.0, SVG Export Plug-In . SVG Version: 6.00 Build 0)  -->
<svg version="1.1" id="Layer_1" xmlns="http://www.w3.org/2000/svg" xmlns:xlink="http://www.w3.org/1999/xlink" x="0px" y="0px"
	 viewBox="0 0 126.7 146.3" style="enable-background:new 0 0 126.7 146.3;" xml:space="preserve">
<style type="text/css">
	.st0{fill:url(#SVGID_1_);}
</style>
<linearGradient id="SVGID_1_" gradientUnits="userSpaceOnUse" x1="63.3375" y1="-0.3205" x2="63.3375" y2="146.6171">
	<stop  offset="0" style="stop-color:#5255A3"/>
	<stop  offset="3.442916e-02" style="stop-color:#5956A3"/>
	<stop  offset="0.3699" style="stop-color:#975BA2"/>
	<stop  offset="0.6539" style="stop-color:#C55FA1"/>
	<stop  offset="0.8723" style="stop-color:#E161A1"/>
	<stop  offset="0.9988" style="stop-color:#EB62A1"/>
</linearGradient>
<polygon class="st0" points="126.7,36.7 118,31.7 111,35.9 110.7,27.5 102.6,22.7 94.2,27.5 94.2,45.7 71.5,58.8 71.5,32.5 
	87.2,23.5 87.2,13.7 79,9 71.7,13.2 71.7,4.8 63.3,0 54.9,4.8 54.9,13.5 47.6,9 39.2,13.7 39.2,23.3 54.9,32.5 54.9,58.8 32.2,45.7 
	32.2,27.5 23.8,22.7 15.7,27.5 15.7,35.9 8.4,31.7 0,36.7 0,46.2 7.3,50.4 0,54.7 0,64.2 8.1,68.9 23.8,60 46.6,73.1 23.8,86.3 
	8.4,77.4 0,82.1 0,91.6 7.3,95.9 0,100.1 0,109.9 8.1,114.6 15.7,110.4 15.7,118.8 23.8,123.6 32.2,118.8 32.2,100.6 54.9,87.5 
	54.9,113.8 39.2,123 39.2,132.6 47.6,137.3 54.9,132.8 54.9,141.5 63.3,146.3 71.7,141.5 71.7,133.1 79,137.3 87.2,132.6 
	87.2,122.8 71.5,113.8 71.5,87.5 94.2,100.6 94.4,118.8 102.6,123.6 110.7,118.8 110.7,110.4 118.3,114.6 126.7,109.9 126.7,100.1 
	119.4,95.9 126.7,91.6 126.7,82.1 118.3,77.4 102.6,86.3 79.8,73.1 102.6,60 118.3,68.9 126.7,64.2 126.7,54.7 119.1,50.4 
	126.7,46.2 "/>
</svg>
