<?xml version="1.0" encoding="utf-8"?>
<!-- Generator: Adobe Illustrator 28.2.0, SVG Export Plug-In . SVG Version: 6.00 Build 0)  -->
<svg version="1.1" id="Layer_1" xmlns="http://www.w3.org/2000/svg" xmlns:xlink="http://www.w3.org/1999/xlink" x="0px" y="0px"
	 viewBox="0 0 24 24" style="enable-background:new 0 0 24 24;" xml:space="preserve">
<style type="text/css">
	.st0{fill:#FFFFFF;}
</style>
<path class="st0" d="M5.2,10.8c-0.4,0-0.8-0.4-0.8-0.8V6.1c0-0.9,0.8-1.7,1.7-1.7H10c0.4,0,0.8,0.4,0.8,0.8S10.5,6,10,6H6.1
	C6.1,6,6,6.1,6,6.1V10C6,10.5,5.7,10.8,5.2,10.8z"/>
<path class="st0" d="M18.8,10.8c-0.4,0-0.8-0.4-0.8-0.8V6.1C18,6.1,17.9,6,17.9,6H14c-0.4,0-0.8-0.4-0.8-0.8s0.4-0.8,0.8-0.8h3.9
	c0.9,0,1.7,0.8,1.7,1.7V10C19.6,10.5,19.2,10.8,18.8,10.8z"/>
<path class="st0" d="M10,19.5H6.1c-0.9,0-1.7-0.8-1.7-1.7V14c0-0.4,0.4-0.8,0.8-0.8S6,13.5,6,14v3.9C6,17.9,6.1,18,6.1,18H10
	c0.4,0,0.8,0.4,0.8,0.8S10.5,19.5,10,19.5z"/>
<path class="st0" d="M17.9,19.5H14c-0.4,0-0.8-0.4-0.8-0.8S13.5,18,14,18h3.9c0.1,0,0.1-0.1,0.1-0.1V14c0-0.4,0.4-0.8,0.8-0.8
	s0.8,0.4,0.8,0.8v3.9C19.6,18.8,18.8,19.5,17.9,19.5z"/>
</svg>
