<?xml version="1.0" encoding="utf-8"?>
<!-- Generator: Adobe Illustrator 21.1.0, SVG Export Plug-In . SVG Version: 6.00 Build 0)  -->
<svg version="1.1" id="Layer_1" xmlns="http://www.w3.org/2000/svg" xmlns:xlink="http://www.w3.org/1999/xlink" x="0px" y="0px"
	 viewBox="0 0 141.7 78.8" style="enable-background:new 0 0 141.7 78.8;" xml:space="preserve">
<style type="text/css">
	.st0{fill:#6C757D;stroke:#FFFFFF;stroke-miterlimit:10;}
</style>
<polygon class="st0" points="105.2,19.9 100.5,17.3 96.7,19.6 96.6,15 92.2,12.4 87.7,15 87.7,24.8 75.5,31.8 75.5,17.7 83.9,12.9 
	83.9,7.6 79.6,5.1 75.6,7.3 75.6,2.8 71.2,0.3 66.7,2.8 66.7,7.5 62.7,5.1 58.2,7.6 58.2,12.7 66.7,17.7 66.7,31.8 54.4,24.8 
	54.4,15 49.9,12.4 45.6,15 45.6,19.6 41.6,17.3 37.2,19.9 37.2,25.1 41,27.4 37.2,29.6 37.2,34.7 41.5,37.3 49.9,32.5 62.1,39.5 
	49.9,46.6 41.6,41.8 37.1,44.3 37.1,49.4 41,51.7 37.1,53.9 37.1,59.2 41.5,61.8 45.6,59.5 45.6,64.1 49.9,66.7 54.4,64.1 
	54.4,54.2 66.7,47.3 66.7,61.4 58.2,66.3 58.2,71.5 62.7,74 66.7,71.6 66.7,76.3 71.2,78.8 75.6,76.3 75.6,71.8 79.6,74 83.9,71.5 
	83.9,66.2 75.5,61.4 75.5,47.3 87.7,54.2 87.9,64.1 92.2,66.7 96.6,64.1 96.6,59.5 100.7,61.8 105.2,59.2 105.2,53.9 101.2,51.7 
	105.2,49.4 105.2,44.3 100.7,41.8 92.2,46.6 80.1,39.5 92.2,32.5 100.7,37.3 105.2,34.7 105.2,29.6 101.1,27.4 105.2,25.1 "/>
</svg>
