<?xml version="1.0" encoding="utf-8"?>
<!-- Generator: Adobe Illustrator 23.0.1, SVG Export Plug-In . SVG Version: 6.00 Build 0)  -->
<svg version="1.1" id="Layer_1" xmlns="http://www.w3.org/2000/svg" xmlns:xlink="http://www.w3.org/1999/xlink" x="0px" y="0px"
	 viewBox="0 0 1860.3 461.5" style="enable-background:new 0 0 1860.3 461.5;" xml:space="preserve">
<style type="text/css">
	.st0{fill:#010101;}
</style>
<path class="st0" d="M1678.7-1.1c4.1-1,8.4-0.7,12.6-0.7c45.3,0,90.7,0,136,0c5.1-0.1,10.3-0.2,15.1,1.8
	c10.3,3.8,17.7,14.1,17.8,25.1c0,24,0.1,48.1,0,72.1c-0.1,8.1-4.3,15.5-10.2,20.8c-23.9,24.1-47.8,48.1-71.7,72.2
	c-10,10.4-28.2,10.6-38.5,0.5c-22.7-22.7-45.2-45.5-67.8-68.2c-3.4-3.6-7.3-6.8-10.1-10.9c-3-4.5-4.7-9.9-4.7-15.3
	c0-23.7,0-47.4,0-71.1C1657.4,12.9,1666.7,1.5,1678.7-1.1z"/>
<path class="st0" d="M2.4,88.7c85.5,0,171,0,256.5,0c0,12.2,0,24.3,0,36.5c-36.3,0-72.5,0-108.8,0c0,97.5,0,195,0,292.5
	c-13.1,0-26.2,0-39.2,0c0-97.5,0-195,0-292.5c-36.2,0-72.3,0-108.5,0C2.4,113,2.4,100.9,2.4,88.7z"/>
<path class="st0" d="M1329.7,89.8c7.6-2.2,16.4-1.5,23,3.1c6.1,4.2,10.7,10.9,11.7,18.3c0.9,7-0.4,14.6-4.7,20.4
	c-9.6,13.4-32.4,13.8-42.6,0.9c-7.6-9.4-7.7-24.2-0.1-33.6C1320.2,94.7,1324.6,91.3,1329.7,89.8z"/>
<path class="st0" d="M857.3,137.9c12.2,0,24.3,0,36.5,0c0,20.7,0,41.3,0,62c21.3,0,42.7,0,64,0c0,10.3,0,20.7,0,31
	c-21.3,0-42.7,0-64,0c0,37.8,0,75.5,0,113.3c0.5,11.3-0.6,23.6,6,33.6c4.6,7.3,13.1,11,21.5,11.4c12.7,0.9,25.6-1.6,37-7.2
	c0.6,11.1,0.8,22.2,1.5,33.2c-17.2,7.5-36.5,8.8-55,7.4c-14.5-1.2-29.5-7.5-37.6-20.1c-9.1-14.2-9.1-31.8-9.9-48.1
	c-0.1-41.1,0-82.2,0-123.3c-15.7,0-31.5,0-47.2,0c0-10.3,0-20.7,0-31c15.7,0,31.5,0,47.2,0C857.3,179.3,857.3,158.6,857.3,137.9z"/>
<path class="st0" d="M249.2,236.2c14.7-29.8,50.2-45.5,82.4-41.1c1.9,0.4,3.7,0.9,5.6,1.5c-0.9,12.3-1.6,24.7-2.4,37
	c-15.6-4.3-32.8-3.8-47.8,2.3c-12.7,5.1-21.9,16.3-27,28.7c-6.5,15.2-8.5,32.1-8.2,48.5c0,34.8,0,69.7,0,104.5
	c-12.2,0-24.3,0-36.5,0c0-32.2,0-64.3,0-96.5c-0.1-27.7,0.3-55.4-0.3-83.1c-0.4-12.8-1.8-25.5-1.5-38.2c11.5,0,23,0,34.5,0
	C248,212.1,248.8,224.1,249.2,236.2z"/>
<g>
	<path class="st0" d="M411.9,203.7c19.8-8.8,41.9-10.9,63.3-8.4c18.7,2.4,36.9,9.7,51.2,22c16,13.5,26.5,32.8,31.5,53
		c4.2,16.2,4.6,33.1,4.5,49.9c-58.5,0-117.1,0-175.6,0c1.3,17.6,8.9,34.7,20.9,47.6c11.8,12.5,28.3,20.6,45.6,21.4
		c15.2,0.6,30.9-1.3,44.6-8.4c11.4-5.8,21-14.6,29-24.5c9.2,7.2,18.4,14.4,27.6,21.6c-11,14.2-24.5,26.9-41,34.4
		c-20,9.1-42.3,11.6-64.1,10.6c-31-1.4-61.4-16.8-79.7-42.1c-11.7-15.9-18.6-35-21.1-54.5c-3.2-26.1,0.4-53.5,13.2-76.7
		C372.6,229.2,390.6,212.8,411.9,203.7z M409.5,244.4c-13.1,11.3-20.6,27.9-22.7,44.8c45.4,0,90.9,0,136.3,0
		c-0.3-5.3-0.9-10.6-2.1-15.8c-3.4-14.8-12.7-28.2-25.8-36.1c-11.3-6.8-24.7-9.4-37.8-9.1C440.2,227.9,422.4,232.8,409.5,244.4z"/>
</g>
<path class="st0" d="M675.7,199.6c14.7-5.7,30.9-6.2,46.4-4.4c18.5,2.2,36.8,10.8,48.6,25.4c11,13.3,15.9,30.6,17.7,47.5
	c0.9,7.6,0.6,15.3,0.6,22.9c0,42.2,0,84.3,0,126.5c-12.2,0-24.3,0-36.5,0c0-39.2,0-78.4,0-117.5c-0.1-11.2,0.7-22.5-1.9-33.6
	c-2.7-12.6-9.1-25.4-20.6-32.1c-11.7-6.9-25.8-7.1-38.9-5.6c-15.9,1.9-31.2,10.4-40.2,23.9c-11.9,17.3-14.8,38.9-15.1,59.4
	c0,35.2,0,70.4,0,105.6c-12.2,0-24.3,0-36.5,0c0-54.8,0-109.7,0-164.5c0.4-17.8-1.5-35.5-1.8-53.2c11.6,0,23.2,0,34.8,0
	c-0.2,12.2,0.9,24.3,0.9,36.4C641.9,219.1,657.6,206.1,675.7,199.6z"/>
<g>
	<path class="st0" d="M980.7,227.9c20.2-21.3,49.7-31.6,78.5-33.4c22-0.7,45.2,0.9,64.6,12.1c14.5,8.2,24.3,23,29,38.7
		c5.6,17.3,5.6,35.7,5.4,53.7c0,13.7,0,27.4,0,41c0.2,25.9-1.2,51.9,3.4,77.5c-11.7,0.1-23.5,0-35.2,0c-2.7-10.8-2-22.1-2.5-33.1
		c-8.7,13.2-20.8,24.3-35.1,31.1c-11.1,5.1-23.5,7.3-35.7,7.4c-16.2,0.2-32.6-2.5-47.2-9.7c-11.4-5.6-21.3-14.3-27.6-25.4
		c-9.1-15.6-9-35-4.4-52.1c4-14.9,15.6-26.4,28.4-34.4c15.3-9.4,33.1-13.7,50.7-16.3c22.8-2.8,45.7-3.1,68.6-2.9
		c0.4-11.5-0.4-23.7-6.8-33.7c-7.5-12-21.5-18.1-35.1-19.7c-27.1-3-56.1,4.2-76.3,23.1C996.1,243.8,988.3,236,980.7,227.9z
		 M1034.3,321.2c-6.9,2.8-13.6,6.9-17.9,13.1c-5.4,7.4-6.8,17-5.7,25.9c0.8,8.2,4.3,16.6,11,21.7c7.4,5.4,16.4,8.3,25.4,9.5
		c15.6,1.9,32.3,0.1,45.8-8.6c15.1-9,24.5-25.5,27.5-42.5c1.9-8.9,1.3-18,1.4-27.1c-14.5,0-29,0-43.5,0
		C1063.4,313.7,1048.3,315.6,1034.3,321.2z"/>
</g>
<g>
	<path class="st0" d="M1498.9,195c24.2-2.2,49.4,1.2,71.1,12.5c30.9,15.3,52.4,46.8,57.4,80.7c2.8,19.5,1.9,39.8-4.2,58.7
		c-5.6,16.7-14.9,32.4-27.6,44.6c-14.1,14-32.5,23.3-51.7,28c-18.2,4.3-37.3,4.6-55.8,1.4c-19.1-3.5-37.5-11.6-52.4-24.1
		c-11.8-9.9-21.3-22.4-27.9-36.3c-10.6-21.7-13.1-46.6-10-70.3c4.3-32.7,23.7-63.5,52.5-79.9C1465.2,201.7,1481.9,196.6,1498.9,195z
		 M1499.8,229c-20.2,2.9-38.9,14.6-50.2,31.6c-10.9,16.2-14.8,36.3-13.4,55.6c1.1,17,7,33.9,18.2,47c13.7,16.4,34.8,26,56,26.1
		c14.5,0.5,29.3-2.6,41.8-10.1c17.8-10.2,30.5-28.3,35-48.2c4.2-18.6,3.3-38.7-3.9-56.5c-6.2-15.8-18.1-29.1-33.1-37.2
		C1535,228.6,1516.9,226.7,1499.8,229z"/>
</g>
<path class="st0" d="M1319.6,200c12.2,0,24.3,0,36.5,0c0,72.6,0,145.2,0,217.8c-12.2,0-24.3,0-36.5,0
	C1319.5,345.1,1319.6,272.5,1319.6,200z"/>
<path class="st0" d="M1229.8,365c6-1,12.5-0.9,18.1,1.8c9.7,4.4,16.7,14.7,16.2,25.5c0.7,15.2-13.8,28.8-28.8,28
	c-14.1-0.3-27.1-12.9-27.2-27.2C1207.3,380.1,1217.1,367.6,1229.8,365z"/>
</svg>
