<svg width="185" height="38" viewBox="0 0 185 38" fill="none" xmlns="http://www.w3.org/2000/svg">
<g clip-path="url(#clip0_33_2)">
<path d="M4.71212 17.5385H0V14.9063H4.71212V7.55128C4.71212 6.08974 4.93033 4.87856 5.37359 3.9245C5.81684 2.96368 6.36238 2.19231 7.01703 1.6104C7.67168 1.02849 8.40134 0.608974 9.1992 0.365385C10.0039 0.121795 10.7608 0 11.4837 0C12.8611 0 13.9863 0.196225 14.8728 0.581909L14.2864 3.11254C13.6317 2.78775 12.7452 2.62536 11.6337 2.62536C8.98098 2.62536 7.65804 4.62144 7.65804 8.62037V14.9063H12.9634V17.5385H7.65804V37.4181H4.71212V17.5385Z" fill="black"/>
<path d="M17.5805 21.2396C17.5805 20.8201 17.5668 20.3059 17.5327 19.7037C17.4986 19.1015 17.4782 18.4925 17.4577 17.8767C17.4441 17.261 17.4168 16.6859 17.3827 16.1446C17.3486 15.61 17.335 15.1973 17.335 14.8995H20.2809C20.315 15.7453 20.3354 16.5573 20.3559 17.3354C20.3695 18.1136 20.4105 18.621 20.4786 18.8443C21.2288 17.5114 22.1971 16.422 23.3768 15.5829C24.5566 14.7371 25.9954 14.3176 27.7003 14.3176C27.9935 14.3176 28.2799 14.3447 28.5595 14.3921C28.8391 14.4394 29.1255 14.5003 29.4187 14.5612L29.0777 17.4369C28.6822 17.3084 28.3072 17.2407 27.9457 17.2407C26.6705 17.2407 25.5658 17.4437 24.6316 17.8497C23.6973 18.2557 22.9268 18.8173 22.3267 19.5277C21.7198 20.245 21.2697 21.0772 20.9765 22.0381C20.6832 22.9989 20.5332 24.0274 20.5332 25.1303V37.4045H17.5873V21.2329L17.5805 21.2396Z" fill="black"/>
<path d="M31.7646 26.1588C31.7646 24.4401 32.0579 22.8568 32.6512 21.4088C33.2376 19.9608 34.0559 18.7158 35.1061 17.6602C36.1563 16.6047 37.411 15.7859 38.884 15.1973C40.3569 14.6153 41.9595 14.3176 43.6984 14.3176C45.4373 14.3176 47.0262 14.6086 48.4855 15.1973C49.9448 15.7792 51.1996 16.6047 52.2634 17.6602C53.3272 18.7158 54.1523 19.9676 54.7456 21.4088C55.332 22.8568 55.6321 24.4401 55.6321 26.1588C55.6321 27.8775 55.3389 29.4608 54.7456 30.9088C54.1591 32.3568 53.3272 33.6018 52.2634 34.6574C51.1996 35.7129 49.938 36.5317 48.4855 37.1203C47.0262 37.7022 45.4305 38 43.6984 38C41.9663 38 40.3569 37.709 38.884 37.1203C37.411 36.5384 36.1494 35.7129 35.1061 34.6574C34.0559 33.6018 33.2376 32.35 32.6512 30.9088C32.0647 29.4608 31.7646 27.8775 31.7646 26.1588ZM34.7106 26.1588C34.7106 27.4241 34.9151 28.6218 35.3243 29.7382C35.7335 30.8614 36.3336 31.8358 37.1178 32.6613C37.902 33.4868 38.8499 34.1499 39.9682 34.6371C41.0798 35.1243 42.3277 35.3678 43.6984 35.3678C45.069 35.3678 46.317 35.1243 47.4285 34.6371C48.5401 34.1499 49.4879 33.4936 50.279 32.6613C51.0632 31.8358 51.6633 30.8614 52.0724 29.7382C52.4816 28.615 52.6862 27.4241 52.6862 26.1588C52.6862 24.8935 52.4816 23.6958 52.0724 22.5794C51.6633 21.4562 51.0632 20.4818 50.279 19.6563C49.4948 18.8308 48.5469 18.1677 47.4285 17.6805C46.317 17.1933 45.069 16.9497 43.6984 16.9497C42.3277 16.9497 41.0798 17.1933 39.9682 17.6805C38.8567 18.1677 37.9088 18.824 37.1178 19.6563C36.3336 20.4818 35.7335 21.4562 35.3243 22.5794C34.9151 23.7026 34.7106 24.8935 34.7106 26.1588Z" fill="black"/>
<path d="M62.2534 31.6666C62.874 32.871 63.7946 33.7844 65.0016 34.4205C66.2154 35.0565 67.4906 35.3678 68.834 35.3678C69.4546 35.3678 70.0751 35.273 70.7025 35.0768C71.323 34.8806 71.8822 34.6032 72.3732 34.2513C72.8642 33.8927 73.2665 33.4664 73.5734 32.9589C73.8871 32.4582 74.0371 31.8763 74.0371 31.2267C74.0371 30.1847 73.703 29.4066 73.0279 28.8856C72.3596 28.3646 71.5276 27.9586 70.5456 27.6676C69.5637 27.3767 68.4862 27.1263 67.3065 26.9098C66.1268 26.7 65.0493 26.3753 64.0673 25.9354C63.0854 25.4956 62.2602 24.8866 61.5851 24.1085C60.9168 23.3304 60.5759 22.2275 60.5759 20.793C60.5759 19.6901 60.8077 18.7292 61.2646 17.9173C61.7215 17.1053 62.3216 16.4287 63.0581 15.8941C63.7946 15.3596 64.6197 14.9604 65.5403 14.7032C66.4541 14.4461 67.3883 14.3108 68.3362 14.3108C70.2047 14.3108 71.814 14.6491 73.1711 15.3325C74.5281 16.0159 75.5851 17.085 76.3352 18.5465L73.6825 20.1028C73.1233 19.0608 72.4278 18.2759 71.5958 17.7413C70.7639 17.2068 69.6728 16.9361 68.3294 16.9361C67.8043 16.9361 67.2588 17.0173 66.6859 17.1797C66.1131 17.3421 65.5949 17.5722 65.138 17.8631C64.6811 18.1541 64.2924 18.5262 63.9855 18.9864C63.6718 19.4397 63.5218 19.9607 63.5218 20.5426C63.5218 21.5508 63.8559 22.2951 64.531 22.7823C65.1993 23.2695 66.0313 23.6484 67.0133 23.9258C67.9952 24.2032 69.0727 24.4401 70.2524 24.6295C71.4321 24.8257 72.5096 25.1438 73.4916 25.5768C74.4735 26.0099 75.2987 26.6459 75.9738 27.4782C76.6421 28.3037 76.983 29.481 76.983 31.0102C76.983 32.1808 76.7648 33.1958 76.3216 34.0551C75.8783 34.9144 75.2714 35.6384 74.5076 36.2203C73.7371 36.8022 72.8642 37.2421 71.8822 37.533C70.9003 37.824 69.8705 37.9728 68.7863 37.9728C66.8223 37.9728 65.0289 37.6007 63.4127 36.8496C61.7965 36.0985 60.5418 34.9483 59.6553 33.392L62.2602 31.6395L62.2534 31.6666Z" fill="black"/>
<path d="M94.2218 17.5385H87.7435V32.2013C87.7435 33.2094 88.0231 33.9876 88.5754 34.5424C89.1346 35.0973 89.8984 35.3679 90.8803 35.3679C91.4395 35.3679 91.9987 35.2935 92.5715 35.1514C93.1443 35.0025 93.6899 34.8198 94.215 34.5898L94.4604 37.2219C93.9013 37.4181 93.2671 37.5941 92.5442 37.7565C91.8214 37.9189 91.1872 38 90.628 38C89.5778 38 88.6777 37.8444 87.9276 37.5399C87.1775 37.2287 86.5705 36.8159 86.1137 36.2949C85.6568 35.7739 85.3226 35.1649 85.1044 34.468C84.893 33.7711 84.7839 33.0132 84.7839 32.2013V17.5385H79.874V14.9064H84.7839V8.42419H87.7298V14.9064H94.2081V17.5385H94.2218Z" fill="black"/>
<path d="M99.2275 0.581909H103.646V37.4113H99.2275V0.581909Z" fill="black"/>
<path d="M109.538 25.8678C109.538 24.1762 109.859 22.6064 110.493 21.1449C111.134 19.6833 112.007 18.3977 113.118 17.2948C114.23 16.1919 115.539 15.319 117.046 14.6897C118.553 14.0537 120.169 13.7424 121.908 13.7424C123.647 13.7424 125.263 14.0605 126.77 14.6897C128.277 15.3258 129.587 16.1919 130.698 17.2948C131.81 18.3977 132.69 19.6833 133.324 21.1449C133.965 22.6064 134.278 24.183 134.278 25.8678C134.278 27.5526 133.958 29.1427 133.324 30.6178C132.683 32.0929 131.81 33.3785 130.698 34.4679C129.587 35.5572 128.277 36.4166 126.77 37.0526C125.263 37.6887 123.647 37.9999 121.908 37.9999C120.169 37.9999 118.553 37.6819 117.046 37.0526C115.539 36.4166 114.23 35.5572 113.118 34.4679C112.007 33.3785 111.127 32.0996 110.493 30.6178C109.852 29.1427 109.538 27.5594 109.538 25.8678ZM114.25 25.8678C114.25 27.0384 114.428 28.1142 114.789 29.1089C115.15 30.0968 115.655 30.9426 116.31 31.6395C116.964 32.3364 117.769 32.8913 118.717 33.2973C119.665 33.7033 120.729 33.9062 121.908 33.9062C123.088 33.9062 124.152 33.7033 125.1 33.2973C126.048 32.8913 126.852 32.3364 127.507 31.6395C128.162 30.9426 128.666 30.0968 129.028 29.1089C129.389 28.121 129.566 27.0384 129.566 25.8678C129.566 24.6972 129.389 23.6213 129.028 22.6267C128.666 21.6388 128.162 20.793 127.507 20.0961C126.852 19.3991 126.048 18.8443 125.1 18.4383C124.152 18.0323 123.088 17.8293 121.908 17.8293C120.729 17.8293 119.665 18.0323 118.717 18.4383C117.769 18.8443 116.964 19.3991 116.31 20.0961C115.655 20.793 115.15 21.6388 114.789 22.6267C114.428 23.6146 114.25 24.6972 114.25 25.8678Z" fill="black"/>
<path d="M156.475 20.4616C155.657 19.6158 154.798 18.9729 153.897 18.5399C152.997 18.1001 151.927 17.8836 150.679 17.8836C149.431 17.8836 148.415 18.1001 147.515 18.5399C146.614 18.9797 145.864 19.5819 145.257 20.3398C144.651 21.1044 144.194 21.9772 143.88 22.9719C143.566 23.9598 143.416 24.995 143.416 26.0641C143.416 27.1332 143.594 28.1482 143.955 29.109C144.316 30.0698 144.821 30.9021 145.476 31.6193C146.13 32.3366 146.915 32.8914 147.835 33.2974C148.749 33.7034 149.785 33.9064 150.931 33.9064C152.172 33.9064 153.236 33.6898 154.122 33.25C155.009 32.8102 155.827 32.1674 156.577 31.3284L159.721 34.4477C158.575 35.713 157.239 36.6264 155.718 37.1745C154.197 37.7294 152.581 38 150.883 38C149.083 38 147.44 37.7091 145.946 37.1204C144.46 36.5385 143.171 35.713 142.093 34.6574C141.016 33.6019 140.177 32.3366 139.591 30.8547C139.004 29.3796 138.704 27.7422 138.704 25.9559C138.704 24.1695 138.997 22.5321 139.591 21.0367C140.177 19.5413 141.009 18.2625 142.073 17.1866C143.137 16.1175 144.412 15.2785 145.905 14.6763C147.392 14.0741 149.056 13.7764 150.89 13.7764C152.595 13.7764 154.218 14.0741 155.773 14.6763C157.328 15.2785 158.678 16.192 159.823 17.4302L156.482 20.448L156.475 20.4616Z" fill="black"/>
<path d="M163.499 0.581909H167.918V24.359L177.935 14.3718H184.073L173.223 24.8462L185.007 37.4181H178.72L167.918 25.4348V37.4181H163.499V0.581909Z" fill="black"/>
</g>
<defs>
<clipPath id="clip0_33_2">
<rect width="185" height="38" fill="white"/>
</clipPath>
</defs>
</svg>
