<?xml version="1.0" encoding="utf-8"?>
<!-- Generator: Adobe Illustrator 21.1.0, SVG Export Plug-In . SVG Version: 6.00 Build 0)  -->
<svg version="1.1" id="Layer_1" xmlns="http://www.w3.org/2000/svg" xmlns:xlink="http://www.w3.org/1999/xlink" x="0px" y="0px"
	 viewBox="0 0 141.7 78.8" style="enable-background:new 0 0 141.7 78.8;" xml:space="preserve">
<style type="text/css">
	.st0{fill:#6C757D;}
</style>
<g id="_x23_ffffffff">
	<path class="st0" d="M51.3,7.9c0.6-0.9,1.2-1.7,1.9-2.5c0.7,0,1.5,0,2.2,0.2c1.1,0.5,2.4,0.9,3.1,1.9c1.2,1.5,1.6,3.5,1.6,5.4
		c0.1,6.4-1.5,12.6-3.1,18.8c-2,8.2-5.6,15.9-9.5,23.4c-2.3,4.6-5.8,8.6-9.7,11.9c-3.8,3.5-8.8,5.6-13.9,6.2l0.1,0.3
		c-1.8,0.1-3.6,0.1-5.4,0l0.1-0.3c-2.2-0.5-4.1-1.7-5.9-2.9c-2.7-1.9-3.5-5.5-3.2-8.6c0.3-1.8-0.2-3.8,0.7-5.4
		c1.7-3.5,3.3-7.3,6.4-9.8c3.6-3,7.4-5.7,11.6-7.8c4.2-2,8.4-3.9,12.9-5.3c-2.7,1.7-5.8,2.7-8.7,4.1c-5.2,2.6-10.7,5.4-14,10.4
		c-2.4,3.3-2.9,7.5-3.2,11.5c0,2.1,0.1,4.6,2,5.9c2.5,1.3,5.4,0.3,7.9-0.4c3.1-0.8,6-2.4,8.4-4.6c5.9-6,10.8-13.2,12.9-21.4
		c1.1-3.8,2.2-7.7,3.1-11.5c1.2-5,2.5-10.1,2.4-15.3C52.2,10.5,51.5,9.2,51.3,7.9z"/>
	<path class="st0" d="M80.5,14.4c0.6-1.2,1.4-2.7,2.9-2.9c1.3-0.1,3,0.5,3.3,2c0.4,2.3,0,4.6-0.5,6.8c-1,5-2.2,10-3.4,14.9
		c-0.3,1.5-0.6,3.1-0.4,4.6c0.1,0.6,0.6,1.3,1.3,1.2c1.7-0.1,3.3-0.9,4.7-1.9c3.2-2.5,6.4-5.1,9.9-7.2c0.7-0.4,1.9-0.8,2.4,0.1
		c0.6,1.3,0.7,2.9,0.2,4.2c-0.7,1.5-2.2,2.4-3.4,3.4c-3,2.3-6.5,4-9,6.9c0.4,1.1,0.6,2.2,1.2,3.2c2,3.3,4.4,6.4,7.1,9.1
		c1.1-4.5,2.3-9.1,3.6-13.5c0.3-1.5,1.7-4-0.5-4.7c2-1.7,4.4-3.7,7.2-3.1c0.7,0.2,1.6,0.3,1.9,1.1c0.3,1.4-0.4,2.7-0.8,3.9
		C106,49.3,105,56.8,101,63c0.7,1.7-1.3,2.4-2.6,2.6c-1.7,0.6-3.3-0.5-4.5-1.5c-5.4-4.2-8.4-10.7-13.4-15.3c-1,1.4-1.5,3-2.1,4.6
		c-1.2,3.8-2.4,7.7-4.1,11.3c-0.6,1.2-1.6,2.7-3.1,2.3c-1-0.3-2.6-0.5-2.6-1.9c0.3-3,2.1-5.6,3.1-8.4c1.9-5.5,3.1-11.2,4.3-16.8
		c1-5.1,2.2-10.2,2.7-15.3c0.1-0.6,0-1.1-0.3-1.7c-3.2,5.4-6.4,10.9-10.5,15.7c2.2-3.7,4.7-7.1,6.8-10.9
		C77.1,23.5,78.4,18.8,80.5,14.4z"/>
	<path class="st0" d="M108.9,20.3c0.9-2.6,4.9-3.5,6.6-1.2c1.5,2.1,1,4.8,1.7,7.2c2,6.9,8.1,12.1,14.9,13.8
		c-2.3,0.4-4.6-0.7-6.6-1.7c-5.1-2.9-8.4-7.9-12.5-11.9c-1.3-0.7-2.9-1.1-3.9-2.3C108,23.1,108.3,21.5,108.9,20.3z"/>
	<path class="st0" d="M57.9,40.9c1.4-1.3,3.4-1.6,5.2-1.3c1.2,0.3,1.9,1.4,2.6,2.3c0.5-0.7,1-1.4,1.5-2.1c-0.4,0.8-0.8,1.7-1.2,2.5
		c1.3,4.1,1,8.6,1,12.9c0.1,4.7-2.7,9.2-6.6,11.8c-1.5,1-3.1,2.2-5,1.9c-2.1-0.2-3.8-1.7-4.8-3.4c-1.8-2.4-1.3-5.7-1.2-8.5
		c0.2-3.5,2-6.5,3.7-9.5c-0.2-0.1-0.5-0.2-0.7-0.3C54.3,45.2,55.8,42.8,57.9,40.9 M58.8,50.4c-2.7,2.1-4,5.6-4,8.9
		c0,1.4,0.7,3,2.1,3.5c2.1-0.3,3.3-2.4,3.9-4.3c0.6-2.1,1.3-4.4,0.7-6.7C61.1,50.8,59.9,49.6,58.8,50.4z"/>
</g>
</svg>
