<svg width="449" height="49" viewBox="0 0 449 49" fill="none" xmlns="http://www.w3.org/2000/svg">
<g clip-path="url(#clip0_31_483)">
<path d="M30.6928 31.7327C29.0325 33.9944 27.1146 35.6207 24.9324 36.6047C22.7502 37.5886 20.3918 38.0806 17.8573 38.0806C15.3227 38.0806 12.8084 37.6296 10.6127 36.7277C8.41697 35.8257 6.53976 34.5616 4.97428 32.9422C3.41558 31.3159 2.19573 29.3821 1.31473 27.134C0.433725 24.886 0 22.4329 0 19.7816C0 17.1304 0.440502 14.6842 1.31473 12.4498C2.19573 10.2222 3.41558 8.29524 4.97428 6.66897C6.53298 5.0427 8.41697 3.77174 10.6127 2.85611C12.8084 1.94048 15.221 1.47583 17.8573 1.47583C20.2021 1.47583 22.3843 1.89265 24.4173 2.73312C26.4504 3.56675 28.2328 4.97437 29.7576 6.94229L27.1214 9.15621C26.0506 7.51627 24.6749 6.32048 23.001 5.56201C21.3271 4.81037 19.6125 4.42772 17.8505 4.42772C15.6073 4.42772 13.581 4.82404 11.7783 5.60984C9.97567 6.39565 8.4373 7.48211 7.17001 8.85555C5.90272 10.2358 4.92684 11.8553 4.24237 13.7275C3.5579 15.5998 3.21905 17.6156 3.21905 19.7816C3.21905 21.9477 3.5579 23.9635 4.24237 25.8358C4.92684 27.708 5.90272 29.3275 7.17001 30.7077C8.4373 32.088 9.97567 33.1676 11.7783 33.9534C13.581 34.7393 15.6073 35.1356 17.8505 35.1356C18.7315 35.1356 19.6396 35.0262 20.5816 34.8144C21.5236 34.6026 22.4453 34.2746 23.3398 33.8305C24.2344 33.3863 25.0883 32.8328 25.9015 32.1563C26.7147 31.4867 27.4331 30.6736 28.0498 29.7238L30.686 31.7395L30.6928 31.7327Z" fill="black"/>
<path d="M34.4951 25.829C34.4951 24.0934 34.7865 22.4944 35.3761 21.0322C35.9589 19.5699 36.7722 18.3126 37.8158 17.2466C38.8595 16.1807 40.1064 15.3539 41.5703 14.7594C43.0341 14.1717 44.6267 13.8711 46.3548 13.8711C48.0829 13.8711 49.6619 14.1649 51.1122 14.7594C52.5625 15.347 53.8094 16.1807 54.8666 17.2466C55.9238 18.3126 56.7438 19.5767 57.3334 21.0322C57.9163 22.4944 58.2144 24.0934 58.2144 25.829C58.2144 27.5646 57.923 29.1635 57.3334 30.6258C56.7506 32.0881 55.9238 33.3454 54.8666 34.4113C53.8094 35.4773 52.5557 36.3041 51.1122 36.8986C49.6619 37.4862 48.0761 37.7869 46.3548 37.7869C44.6334 37.7869 43.0341 37.493 41.5703 36.8986C40.1064 36.3109 38.8527 35.4773 37.8158 34.4113C36.7722 33.3454 35.9589 32.0812 35.3761 30.6258C34.7933 29.1635 34.4951 27.5646 34.4951 25.829ZM37.4228 25.829C37.4228 27.1068 37.6261 28.3162 38.0327 29.4437C38.4393 30.578 39.0357 31.5619 39.815 32.3956C40.5944 33.2292 41.5364 33.8988 42.6478 34.3908C43.7524 34.8828 44.9926 35.1288 46.3548 35.1288C47.7169 35.1288 48.9571 34.8828 50.0618 34.3908C51.1664 33.8988 52.1084 33.236 52.8945 32.3956C53.6739 31.5619 54.2703 30.578 54.6769 29.4437C55.0835 28.3094 55.2868 27.1068 55.2868 25.829C55.2868 24.5512 55.0835 23.3417 54.6769 22.2143C54.2703 21.08 53.6739 20.096 52.8945 19.2624C52.1152 18.4288 51.1732 17.7591 50.0618 17.2671C48.9571 16.7752 47.7169 16.5292 46.3548 16.5292C44.9926 16.5292 43.7524 16.7752 42.6478 17.2671C41.5431 17.7591 40.6011 18.4219 39.815 19.2624C39.0357 20.096 38.4393 21.08 38.0327 22.2143C37.6261 23.3486 37.4228 24.5512 37.4228 25.829Z" fill="black"/>
<path d="M64.7469 20.8613C64.7469 20.4377 64.7333 19.9184 64.6995 19.3102C64.6656 18.7021 64.6452 18.0871 64.6249 17.4653C64.6114 16.8435 64.5843 16.2627 64.5504 15.716C64.5165 15.1762 64.5029 14.7594 64.5029 14.4587H67.4306C67.4645 15.3129 67.4848 16.1328 67.5051 16.9186C67.5187 17.7044 67.5593 18.2169 67.6271 18.4424H67.7762C68.359 17.1988 69.3349 16.1192 70.7038 15.2172C72.0728 14.3152 73.6654 13.8643 75.4884 13.8643C76.9861 13.8643 78.3482 14.2469 79.5884 15.019C80.8218 15.7912 81.7164 17.0416 82.2721 18.7841C82.9904 17.0758 84.0544 15.8322 85.4708 15.0464C86.8872 14.2606 88.3714 13.8643 89.9368 13.8643C91.6921 13.8643 93.122 14.1444 94.2334 14.6979C95.3381 15.2582 96.2123 15.9825 96.8425 16.8845C97.4796 17.7864 97.9133 18.8251 98.1573 20.0072C98.4012 21.1893 98.5232 22.3988 98.5232 23.6492V37.1787H95.5956V23.7996C95.5956 22.8839 95.5142 21.9888 95.3516 21.121C95.189 20.2532 94.9043 19.4742 94.4977 18.7841C94.0911 18.0939 93.5218 17.5473 92.7899 17.1373C92.058 16.7273 91.1092 16.5223 89.9368 16.5223C88.5679 16.5223 87.4497 16.7751 86.5687 17.2876C85.6877 17.7933 84.9964 18.4424 84.4949 19.2282C83.9934 20.014 83.6343 20.8682 83.4242 21.7838C83.2141 22.6994 83.1057 23.5741 83.1057 24.394V37.1856H80.178V23.5057C80.178 21.408 79.7985 19.7202 79.0327 18.4356C78.2669 17.1578 77.0877 16.5155 75.4951 16.5155C74.4244 16.5155 73.4078 16.7068 72.4455 17.0826C71.4832 17.4585 70.6564 18.0324 69.9584 18.8046C69.2604 19.5767 68.7046 20.5402 68.298 21.7086C67.8914 22.8703 67.6881 24.2437 67.6881 25.8153V37.1787H64.7605V20.8477L64.7469 20.8613Z" fill="black"/>
<path d="M106.324 20.8613C106.324 20.4377 106.311 19.9184 106.277 19.3102C106.243 18.7021 106.222 18.0871 106.202 17.4653C106.189 16.8435 106.161 16.2627 106.128 15.716C106.094 15.1762 106.08 14.7594 106.08 14.4587H109.008C109.042 15.3129 109.062 16.1328 109.082 16.9186C109.096 17.7044 109.136 18.2169 109.204 18.4424H109.353C109.936 17.1988 110.912 16.1192 112.281 15.2172C113.65 14.3152 115.243 13.8643 117.066 13.8643C118.563 13.8643 119.925 14.2469 121.166 15.019C122.399 15.7912 123.294 17.0416 123.849 18.7841C124.568 17.0758 125.632 15.8322 127.048 15.0464C128.464 14.2606 129.948 13.8643 131.514 13.8643C133.269 13.8643 134.699 14.1444 135.811 14.6979C136.915 15.2582 137.789 15.9825 138.42 16.8845C139.057 17.7864 139.49 18.8251 139.734 20.0072C139.978 21.1893 140.1 22.3988 140.1 23.6492V37.1787H137.173V23.7996C137.173 22.8839 137.091 21.9888 136.929 21.121C136.766 20.2532 136.481 19.4742 136.075 18.7841C135.668 18.0939 135.099 17.5473 134.367 17.1373C133.635 16.7273 132.686 16.5223 131.514 16.5223C130.145 16.5223 129.027 16.7751 128.146 17.2876C127.265 17.7933 126.574 18.4424 126.072 19.2282C125.571 20.014 125.211 20.8682 125.001 21.7838C124.791 22.6994 124.683 23.5741 124.683 24.394V37.1856H121.755V23.5057C121.755 21.408 121.376 19.7202 120.61 18.4356C119.844 17.1578 118.665 16.5155 117.072 16.5155C116.002 16.5155 114.985 16.7068 114.023 17.0826C113.06 17.4585 112.234 18.0324 111.536 18.8046C110.837 19.5767 110.282 20.5402 109.875 21.7086C109.469 22.8703 109.265 24.2437 109.265 25.8153V37.1787H106.338V20.8477L106.324 20.8613Z" fill="black"/>
<path d="M166.97 30.7966C166.97 31.2203 166.984 31.7396 167.018 32.3477C167.052 32.9559 167.072 33.5709 167.092 34.1927C167.106 34.8145 167.133 35.3953 167.167 35.9419C167.201 36.4818 167.214 36.8986 167.214 37.1992H164.287C164.253 36.3451 164.233 35.5251 164.212 34.7393C164.199 33.9535 164.158 33.441 164.09 33.2155H163.941C163.358 34.4592 162.382 35.5388 161.013 36.4408C159.645 37.3427 158.052 37.7937 156.229 37.7937C154.406 37.7937 153.03 37.5135 151.912 36.9601C150.787 36.3998 149.913 35.6755 149.276 34.7735C148.639 33.8715 148.212 32.8329 147.981 31.6508C147.751 30.4686 147.643 29.2592 147.643 28.0087V14.4792H150.57V27.8584C150.57 28.774 150.652 29.6692 150.814 30.537C150.977 31.4048 151.261 32.1838 151.668 32.8739C152.075 33.564 152.644 34.1107 153.376 34.5207C154.108 34.9306 155.057 35.1356 156.229 35.1356C157.3 35.1356 158.316 34.9443 159.279 34.5685C160.241 34.1927 161.068 33.6187 161.766 32.8466C162.464 32.0744 163.019 31.111 163.426 29.9425C163.833 28.7809 164.036 27.4074 164.036 25.8358V14.4724H166.964V30.8035L166.97 30.7966Z" fill="black"/>
<path d="M175.021 20.8613C175.021 20.4377 175.008 19.9184 174.974 19.3102C174.94 18.7021 174.92 18.0871 174.899 17.4653C174.886 16.8435 174.859 16.2627 174.825 15.716C174.791 15.1762 174.777 14.7594 174.777 14.4587H177.705C177.739 15.3129 177.759 16.1328 177.78 16.9186C177.793 17.7044 177.834 18.2169 177.902 18.4424H178.051C178.633 17.1988 179.609 16.1192 180.978 15.2172C182.347 14.3152 183.94 13.8643 185.763 13.8643C187.586 13.8643 188.948 14.1444 190.059 14.6979C191.164 15.2582 192.038 15.9825 192.668 16.8845C193.306 17.7864 193.739 18.8251 193.983 20.0072C194.227 21.1893 194.349 22.3988 194.349 23.6492V37.1787H191.422V23.7996C191.422 22.8839 191.34 21.9888 191.178 21.121C191.015 20.2532 190.73 19.4742 190.324 18.7841C189.917 18.0939 189.348 17.5473 188.616 17.1373C187.884 16.7273 186.935 16.5223 185.763 16.5223C184.692 16.5223 183.675 16.7137 182.713 17.0895C181.751 17.4653 180.924 18.0393 180.226 18.8114C179.528 19.5835 178.972 20.547 178.566 21.7155C178.159 22.8771 177.956 24.2505 177.956 25.8221V37.1856H175.028V20.8545L175.021 20.8613Z" fill="black"/>
<path d="M201.905 5.45952C201.905 4.83771 202.115 4.31157 202.542 3.88791C202.962 3.46426 203.484 3.24561 204.101 3.24561C204.718 3.24561 205.24 3.45743 205.66 3.88791C206.08 4.31157 206.297 4.83771 206.297 5.45952C206.297 6.08133 206.087 6.60748 205.66 7.03113C205.24 7.45478 204.718 7.67344 204.101 7.67344C203.484 7.67344 202.962 7.46161 202.542 7.03113C202.122 6.60748 201.905 6.08133 201.905 5.45952ZM202.637 14.4655H205.565V37.1923H202.637V14.4655Z" fill="black"/>
<path d="M224.893 17.1236H218.455V31.9309C218.455 32.949 218.733 33.7348 219.282 34.2951C219.838 34.8554 220.597 35.1287 221.573 35.1287C222.128 35.1287 222.684 35.0536 223.253 34.9101C223.823 34.7598 224.365 34.5753 224.887 34.3429L225.131 37.001C224.575 37.1992 223.945 37.3768 223.226 37.5408C222.508 37.7048 221.878 37.7868 221.322 37.7868C220.278 37.7868 219.384 37.6297 218.638 37.3222C217.893 37.0078 217.29 36.591 216.836 36.0649C216.382 35.5387 216.05 34.9238 215.833 34.22C215.623 33.5161 215.514 32.7508 215.514 31.9309V17.1236H210.635V14.4655H215.514V7.91943H218.442V14.4655H224.88V17.1236H224.893Z" fill="black"/>
<path d="M236.454 44.2305C235.899 45.7064 235.14 46.868 234.164 47.7222C233.188 48.5763 231.887 49 230.26 49C229.772 49 229.284 48.959 228.796 48.877C228.308 48.795 227.834 48.6856 227.38 48.5558L227.671 45.8021C228.092 45.9319 228.525 46.0549 228.966 46.1711C229.406 46.2872 229.854 46.3419 230.308 46.3419C230.829 46.3419 231.29 46.2257 231.697 46.0002C232.104 45.7679 232.456 45.4741 232.747 45.1119C233.039 44.7498 233.289 44.3466 233.506 43.9093C233.716 43.4652 233.906 43.0142 234.069 42.5564L236.115 37.2949L226.939 14.4656H230.206L237.674 33.605L244.946 14.4656H248.07L236.454 44.2305Z" fill="black"/>
<path d="M266.219 2.36426H276.174C277.38 2.36426 278.641 2.50092 279.956 2.78108C281.27 3.06123 282.477 3.54638 283.568 4.22969C284.659 4.91983 285.553 5.86279 286.251 7.05858C286.949 8.25437 287.302 9.75765 287.302 11.5616C287.302 13.1332 287.017 14.4998 286.448 15.6478C285.879 16.7957 285.113 17.7387 284.157 18.4767C283.195 19.2146 282.09 19.7613 280.837 20.1234C279.583 20.4856 278.275 20.6632 276.906 20.6632H269.438V37.1925H266.219V2.36426ZM269.438 17.7113H276.757C277.665 17.7113 278.56 17.602 279.441 17.3902C280.322 17.1784 281.101 16.8299 281.785 16.3584C282.47 15.8869 283.019 15.2514 283.446 14.4656C283.866 13.6798 284.083 12.7095 284.083 11.5616C284.083 10.4136 283.866 9.49799 283.425 8.70535C282.985 7.91955 282.416 7.27041 281.718 6.76476C281.02 6.25911 280.213 5.89013 279.305 5.6578C278.397 5.42548 277.482 5.31615 276.574 5.31615H269.451V17.7113H269.438Z" fill="black"/>
<path d="M292.127 25.829C292.127 24.0934 292.418 22.4944 293.008 21.0322C293.591 19.5699 294.404 18.3126 295.448 17.2466C296.491 16.1807 297.738 15.3539 299.202 14.7594C300.666 14.1717 302.258 13.8711 303.987 13.8711C305.715 13.8711 307.294 14.1649 308.744 14.7594C310.194 15.347 311.441 16.1807 312.498 17.2466C313.556 18.3126 314.376 19.5767 314.965 21.0322C315.548 22.4944 315.846 24.0934 315.846 25.829C315.846 27.5646 315.555 29.1635 314.965 30.6258C314.382 32.0881 313.556 33.3454 312.498 34.4113C311.441 35.4773 310.188 36.3041 308.744 36.8986C307.294 37.4862 305.708 37.7869 303.987 37.7869C302.265 37.7869 300.666 37.493 299.202 36.8986C297.738 36.3109 296.485 35.4773 295.448 34.4113C294.404 33.3454 293.591 32.0812 293.008 30.6258C292.425 29.1635 292.127 27.5646 292.127 25.829ZM295.055 25.829C295.055 27.1068 295.258 28.3162 295.665 29.4437C296.071 30.578 296.668 31.5619 297.447 32.3956C298.226 33.2292 299.168 33.8988 300.28 34.3908C301.384 34.8828 302.624 35.1288 303.987 35.1288C305.349 35.1288 306.589 34.8828 307.694 34.3908C308.798 33.8988 309.74 33.236 310.526 32.3956C311.306 31.5619 311.902 30.578 312.309 29.4437C312.715 28.3094 312.919 27.1068 312.919 25.829C312.919 24.5512 312.715 23.3417 312.309 22.2143C311.902 21.08 311.306 20.096 310.526 19.2624C309.747 18.4288 308.805 17.7591 307.694 17.2671C306.589 16.7752 305.349 16.5292 303.987 16.5292C302.624 16.5292 301.384 16.7752 300.28 17.2671C299.175 17.7591 298.233 18.4219 297.447 19.2624C296.668 20.096 296.071 21.08 295.665 22.2143C295.258 23.3486 295.055 24.5512 295.055 25.829Z" fill="black"/>
<path d="M319.208 14.4656H322.427L327.889 33.5025H327.984L334.28 14.4656H337.058L343.74 33.5025H343.835L349.155 14.4656H352.083L345.448 37.1924H342.426L335.689 18.5928H335.595L329.299 37.1924H326.276L319.201 14.4656H319.208Z" fill="black"/>
<path d="M376.636 32.9149C375.497 34.6505 374.088 35.9009 372.414 36.6526C370.74 37.4042 368.89 37.7869 366.877 37.7869C365.156 37.7869 363.59 37.493 362.194 36.8986C360.798 36.3109 359.592 35.4773 358.582 34.4113C357.572 33.3454 356.8 32.0812 356.264 30.6258C355.729 29.1635 355.458 27.5509 355.458 25.7812C355.458 24.0114 355.736 22.5013 356.285 21.0595C356.84 19.6177 357.62 18.3604 358.63 17.2945C359.639 16.2285 360.825 15.3949 362.194 14.7867C363.563 14.1786 365.075 13.8779 366.735 13.8779C368.395 13.8779 369.981 14.1786 371.296 14.7867C372.61 15.3949 373.722 16.1943 374.616 17.1988C375.511 18.1964 376.189 19.3376 376.643 20.6153C377.097 21.8931 377.327 23.1914 377.327 24.5034V26.567H358.392C358.392 27.1888 358.514 27.9882 358.758 28.9517C359.002 29.922 359.45 30.865 360.1 31.7806C360.751 32.6962 361.618 33.4889 362.709 34.1448C363.8 34.8008 365.203 35.1288 366.931 35.1288C368.429 35.1288 369.873 34.7666 371.275 34.0492C372.671 33.3249 373.749 32.3409 374.494 31.0973L376.643 32.9149H376.636ZM374.393 23.9089C374.393 22.8908 374.189 21.941 373.783 21.0527C373.376 20.1644 372.821 19.3854 372.123 18.7157C371.424 18.0461 370.591 17.5131 369.635 17.1168C368.673 16.7205 367.657 16.5292 366.586 16.5292C364.993 16.5292 363.665 16.8572 362.608 17.5131C361.55 18.1691 360.71 18.9207 360.093 19.7749C359.477 20.629 359.036 21.4558 358.779 22.2621C358.521 23.0684 358.386 23.6151 358.386 23.9089H374.393Z" fill="black"/>
<path d="M383.86 20.8613C383.86 20.4377 383.847 19.9184 383.813 19.3102C383.779 18.7021 383.759 18.0871 383.738 17.4653C383.725 16.8435 383.698 16.2627 383.664 15.716C383.63 15.1762 383.616 14.7594 383.616 14.4587H386.544C386.578 15.3129 386.598 16.1328 386.618 16.9186C386.632 17.7045 386.673 18.2169 386.74 18.4424C387.486 17.0963 388.448 15.9962 389.621 15.1489C390.793 14.2947 392.223 13.8711 393.917 13.8711C394.209 13.8711 394.493 13.8984 394.771 13.9463C395.049 13.9941 395.334 14.0556 395.625 14.1171L395.286 17.0211C394.893 16.8913 394.52 16.823 394.161 16.823C392.894 16.823 391.796 17.028 390.868 17.438C389.939 17.8479 389.173 18.4151 388.577 19.1326C387.974 19.8569 387.527 20.6973 387.235 21.6676C386.944 22.6379 386.795 23.6766 386.795 24.7904V37.1856H383.867V20.8545L383.86 20.8613Z" fill="black"/>
<path d="M419.141 32.9149C418.002 34.6505 416.593 35.9009 414.919 36.6526C413.245 37.4042 411.395 37.7869 409.382 37.7869C407.661 37.7869 406.095 37.493 404.699 36.8986C403.303 36.3109 402.097 35.4773 401.087 34.4113C400.077 33.3454 399.305 32.0812 398.769 30.6258C398.234 29.1635 397.963 27.5509 397.963 25.7812C397.963 24.0114 398.241 22.5013 398.79 21.0595C399.345 19.6177 400.125 18.3604 401.134 17.2945C402.144 16.2285 403.33 15.3949 404.699 14.7867C406.068 14.1786 407.579 13.8779 409.24 13.8779C410.9 13.8779 412.486 14.1786 413.801 14.7867C415.115 15.3949 416.227 16.1943 417.121 17.1988C418.016 18.1964 418.694 19.3376 419.148 20.6153C419.602 21.8931 419.832 23.1914 419.832 24.5034V26.567H400.897C400.897 27.1888 401.019 27.9882 401.263 28.9517C401.507 29.922 401.955 30.865 402.605 31.7806C403.256 32.6962 404.123 33.4889 405.214 34.1448C406.305 34.8008 407.708 35.1288 409.436 35.1288C410.934 35.1288 412.377 34.7666 413.78 34.0492C415.176 33.3249 416.254 32.3409 416.999 31.0973L419.148 32.9149H419.141ZM416.898 23.9089C416.898 22.8908 416.694 21.941 416.288 21.0527C415.881 20.1644 415.325 19.3854 414.627 18.7157C413.929 18.0461 413.096 17.5131 412.14 17.1168C411.178 16.7205 410.161 16.5292 409.091 16.5292C407.498 16.5292 406.17 16.8572 405.113 17.5131C404.055 18.1691 403.215 18.9207 402.598 19.7749C401.982 20.629 401.541 21.4558 401.284 22.2621C401.026 23.0684 400.891 23.6151 400.891 23.9089H416.898Z" fill="black"/>
<path d="M446.072 33.2088H445.977C445.523 33.9946 444.954 34.6779 444.27 35.2518C443.585 35.8258 442.846 36.3041 442.047 36.68C441.247 37.0558 440.413 37.3359 439.532 37.5136C438.651 37.6913 437.791 37.7869 436.944 37.7869C435.222 37.7869 433.623 37.4931 432.159 36.8986C430.695 36.311 429.442 35.4773 428.405 34.4114C427.361 33.3454 426.548 32.0813 425.965 30.6259C425.382 29.1636 425.084 27.5646 425.084 25.829C425.084 24.0934 425.375 22.4945 425.965 21.0322C426.548 19.5699 427.361 18.3126 428.405 17.2467C429.448 16.1807 430.695 15.3539 432.159 14.7594C433.623 14.1718 435.216 13.8711 436.944 13.8711C437.791 13.8711 438.651 13.96 439.532 14.1445C440.407 14.3221 441.247 14.6023 442.047 14.9781C442.846 15.3539 443.585 15.8322 444.27 16.4062C444.954 16.9802 445.523 17.6635 445.977 18.4493H446.072V0H449V37.1924H446.072V33.2088ZM446.364 25.829C446.364 24.5512 446.12 23.3418 445.632 22.2143C445.144 21.08 444.473 20.0961 443.632 19.2624C442.785 18.4288 441.796 17.7592 440.657 17.2672C439.519 16.7752 438.279 16.5292 436.95 16.5292C435.622 16.5292 434.348 16.7752 433.243 17.2672C432.139 17.7592 431.197 18.422 430.411 19.2624C429.631 20.0961 429.035 21.08 428.628 22.2143C428.222 23.3486 428.018 24.5512 428.018 25.829C428.018 27.1068 428.222 28.3163 428.628 29.4437C429.035 30.578 429.631 31.562 430.411 32.3956C431.19 33.2293 432.132 33.8989 433.243 34.3909C434.348 34.8829 435.588 35.1289 436.95 35.1289C438.313 35.1289 439.519 34.8829 440.657 34.3909C441.796 33.8989 442.785 33.2361 443.632 32.3956C444.48 31.5552 445.144 30.578 445.632 29.4437C446.12 28.3094 446.364 27.1068 446.364 25.829Z" fill="black"/>
</g>
<defs>
<clipPath id="clip0_31_483">
<rect width="449" height="49" fill="white"/>
</clipPath>
</defs>
</svg>
