<?xml version="1.0" encoding="utf-8"?>
<!-- Generator: Adobe Illustrator 24.2.3, SVG Export Plug-In . SVG Version: 6.00 Build 0)  -->
<svg version="1.1" id="Layer_1" xmlns="http://www.w3.org/2000/svg" xmlns:xlink="http://www.w3.org/1999/xlink" x="0px" y="0px"
	 width="871px" height="159.8px" viewBox="0 0 871 159.8" style="enable-background:new 0 0 871 159.8;" xml:space="preserve">
<style type="text/css">
	.st0{fill:#212429;}
</style>
<g>
	<path class="st0" d="M0,26.9c31.2,0,62.5,0,93.8,0c0,4.5,0,9,0,13.5c-13.2,0-26.5,0-39.8,0c0,35.7,0,71.3,0,107
		c-4.8,0.1-9.7,0-14.5,0c0-35.7,0-71.3,0-107c-13.2,0-26.3,0-39.5,0C0,35.9,0,31.4,0,26.9z"/>
	<path class="st0" d="M335.8,45.2c4.5,0,8.9,0,13.4-0.1c0.3,7.5,0,15,0.1,22.6c7.8,0,15.7,0,23.5,0c0,3.8,0,7.7,0,11.5
		c-7.8,0-15.7,0-23.5,0c0,14.7-0.1,29.5,0.1,44.2c0,4.6,1,10.3,5.7,12.5c5.8,2.3,12.4,0.7,17.9-1.6c0,4.2,0.3,8.3,0.3,12.5
		c-6.9,2.6-14.5,3.3-21.8,2.3c-5-0.7-10-3.4-12.5-7.9c-2.8-5.1-2.9-11.1-3.1-16.7c-0.1-15.1,0-30.2,0-45.2c-5.7,0-11.5,0-17.2,0
		c0-3.8,0-7.7,0-11.5c5.7,0,11.5,0,17.2,0C335.8,60.2,335.7,52.7,335.8,45.2z"/>
	<path class="st0" d="M113.5,81c5.9-11.5,19.9-17.3,32.3-14.7c-0.3,4.6-0.6,9.2-0.9,13.9c-7.7-2-17-1.3-23,4.7
		c-6.1,6.5-7.3,15.9-7.4,24.5c-0.1,12.7,0,25.4,0,38.1c-4.5,0-9,0-13.5,0c0-20.7,0-41.3,0-62c0.1-5.9-0.5-11.8-0.8-17.8
		c4.3,0,8.6,0,13,0C113.3,72.1,113.6,76.5,113.5,81z"/>
	<path class="st0" d="M161.2,77.1c13.8-13.8,38.5-15.6,53.7-3c10.8,9.1,13.8,24.1,13,37.6c-21.4,0-42.7,0-64.1,0
		c1,9.3,6.3,18.4,14.9,22.7c5.9,3.2,13,3.1,19.5,1.8c6.8-1.5,12.5-5.9,16.9-11.3c3.4,2.6,6.8,5.4,10.3,8
		c-4.2,5.3-9.3,10.2-15.7,12.9c-8.3,3.5-17.5,4.3-26.4,3.3c-12.2-1.5-23.6-9.3-29-20.4C146.2,112.3,148.1,90.5,161.2,77.1
		 M177.8,80.6C170,84,165.2,92,163.9,100.1c16.6,0.1,33.1,0,49.7,0c-0.4-7.3-3.7-14.9-10.2-18.6C195.7,77.2,185.9,77.2,177.8,80.6z"
		/>
	<path class="st0" d="M254,80.8c8.5-16.2,32.2-19.7,46.4-9.2c7.6,5.8,10.4,15.7,10.6,24.8c0,17,0,34,0,51c-4.5,0-9,0-13.5,0
		c0-16.3,0-32.7,0-49c-0.1-6.7-2.2-14.2-8.2-17.9c-9.9-5.1-24-2-29.6,8c-4.4,7.5-4.8,16.4-4.7,24.9c0,11.3,0,22.7,0,34
		c-4.5,0-9,0-13.5,0c0-21,0-42,0-63c0-5.6-0.7-11.2-0.8-16.8c4.3,0,8.7,0,13,0C253.7,72,254,76.4,254,80.8z"/>
	<path class="st0" d="M380.8,78c9.9-10.1,24.9-13.5,38.6-12c8.4,0.8,17.4,4.2,21.7,11.8c6.3,10.4,4.8,23,5,34.6
		c0.3,11.7-0.8,23.4,1.2,35c-4.4,0-8.9,0-13.3-0.1c-0.6-3.9-0.8-7.8-0.6-11.7c-4.8,7-12.2,12.4-20.7,13.4
		c-9.4,1.1-19.8-0.2-27.4-6.4c-11-8.8-10.3-28.2,1.3-36.2c6-4.6,13.5-6.6,20.9-7.7c8.4-1,16.8-1.2,25.2-1.2c0-4.5-0.4-9.3-3.3-13
		c-3.2-4.3-8.7-6-13.8-6.4c-9.4-0.7-19,2.3-26.1,8.6C386.4,84,383.6,81,380.8,78 M398.5,113.3c-6.8,3.3-8.3,12.7-4.5,18.8
		c1.7,2.5,4.6,3.9,7.3,4.8c8.3,2.4,18.1,1.1,24.3-5.2c5.8-5.8,7.2-14.5,6.9-22.5C421.1,109.4,409,108,398.5,113.3z"/>
</g>
<g>
	<path class="st0" d="M514.9,26.2h11.4v122.2h-11.4V26.2z"/>
	<path class="st0" d="M616.8,136.7c-3.9,4.7-8.3,8.2-13.3,10.4c-5,2.2-10.3,3.4-16.1,3.4c-6.1,0-11.7-1-16.9-3.1
		c-5.2-2.1-9.6-5-13.3-8.7c-3.7-3.7-6.6-8.2-8.6-13.3c-2.1-5.1-3.1-10.7-3.1-16.8c0-6.1,1-11.7,3.1-16.8c2.1-5.1,4.9-9.6,8.6-13.3
		c3.7-3.7,8.1-6.6,13.3-8.7c5.2-2.1,10.8-3.1,16.9-3.1c5.9,0,11.3,1.2,16.3,3.6c5,2.4,9.5,5.8,13.4,10.2l-8.3,6.2
		c-3-3.3-6.3-6-9.8-7.9c-3.6-1.9-7.4-2.8-11.6-2.8c-4.8,0-9.2,0.9-13.1,2.6c-3.9,1.7-7.3,4.1-10,7c-2.8,2.9-4.9,6.4-6.3,10.4
		c-1.4,4-2.2,8.2-2.2,12.7c0,4.5,0.7,8.7,2.2,12.7c1.4,4,3.5,7.4,6.3,10.4c2.8,2.9,6.1,5.3,10,7c3.9,1.7,8.3,2.6,13.1,2.6
		c4.4,0,8.4-1,12-3c3.6-2,6.8-4.7,9.4-8L616.8,136.7z"/>
	<path class="st0" d="M621.6,108.6c0-6.1,1-11.7,3.1-16.8c2.1-5.1,4.9-9.6,8.6-13.3c3.7-3.7,8.1-6.6,13.3-8.7
		c5.2-2.1,10.8-3.1,16.9-3.1c6.1,0,11.7,1,16.8,3.1c5.1,2.1,9.6,5,13.3,8.7c3.7,3.7,6.6,8.2,8.7,13.3c2.1,5.1,3.1,10.7,3.1,16.8
		c0,6.1-1,11.7-3.1,16.8c-2.1,5.1-5,9.6-8.7,13.3c-3.7,3.7-8.2,6.6-13.3,8.7c-5.1,2.1-10.7,3.1-16.8,3.1c-6.1,0-11.7-1-16.9-3.1
		c-5.2-2.1-9.6-5-13.3-8.7c-3.7-3.7-6.6-8.2-8.6-13.3C622.7,120.3,621.6,114.7,621.6,108.6z M632,108.6c0,4.5,0.7,8.7,2.2,12.7
		c1.4,4,3.5,7.4,6.3,10.4c2.8,2.9,6.1,5.3,10,7c3.9,1.7,8.3,2.6,13.1,2.6s9.2-0.9,13.1-2.6c3.9-1.7,7.3-4.1,10-7
		c2.8-2.9,4.9-6.4,6.3-10.4c1.4-4,2.2-8.2,2.2-12.7c0-4.5-0.7-8.7-2.2-12.7c-1.4-4-3.5-7.4-6.3-10.4c-2.8-2.9-6.1-5.3-10-7
		c-3.9-1.7-8.3-2.6-13.1-2.6s-9.2,0.9-13.1,2.6c-3.9,1.7-7.3,4.1-10,7c-2.8,2.9-4.9,6.4-6.3,10.4C632.7,99.9,632,104.1,632,108.6z"
		/>
	<path class="st0" d="M721.8,91.2c0-1.5-0.1-3.3-0.2-5.4c-0.1-2.1-0.2-4.3-0.3-6.5c-0.1-2.2-0.1-4.2-0.3-6.1
		c-0.1-1.9-0.2-3.4-0.2-4.4h10.4c0.1,3,0.2,5.9,0.3,8.6c0.1,2.8,0.2,4.5,0.4,5.4h0.5c2.1-4.4,5.5-8.1,10.4-11.3
		c4.8-3.2,10.5-4.7,16.9-4.7c6.2,0,11.3,1,15.2,2.9c3.9,2,7,4.5,9.2,7.7c2.2,3.2,3.8,6.8,4.7,11c0.9,4.1,1.3,8.4,1.3,12.8v47.5
		h-10.4v-47c0-3.2-0.3-6.4-0.9-9.4c-0.6-3-1.6-5.8-3-8.2c-1.4-2.4-3.5-4.3-6-5.8c-2.6-1.4-6-2.2-10.1-2.2c-3.8,0-7.4,0.7-10.8,2
		c-3.4,1.3-6.3,3.3-8.8,6c-2.5,2.7-4.4,6.1-5.9,10.2c-1.4,4.1-2.2,8.9-2.2,14.4v39.9h-10.4V91.2z"/>
	<path class="st0" d="M811,128.1c2.2,4.3,5.4,7.5,9.7,9.8c4.3,2.2,8.7,3.4,13.5,3.4c2.2,0,4.4-0.3,6.6-1c2.2-0.7,4.1-1.7,5.9-2.9
		c1.7-1.3,3.1-2.8,4.2-4.6c1.1-1.8,1.6-3.8,1.6-6.1c0-3.7-1.2-6.4-3.5-8.3c-2.4-1.8-5.3-3.3-8.7-4.3c-3.5-1-7.3-1.9-11.4-2.7
		c-4.1-0.7-7.9-1.9-11.4-3.5s-6.4-3.7-8.7-6.5c-2.4-2.8-3.5-6.7-3.5-11.7c0-3.9,0.8-7.3,2.4-10.2c1.6-2.9,3.7-5.3,6.3-7.2
		c2.6-1.9,5.5-3.3,8.7-4.2c3.2-0.9,6.5-1.4,9.8-1.4c6.6,0,12.2,1.2,17,3.6c4.8,2.4,8.5,6.2,11.1,11.4l-9.3,5.5
		c-2-3.7-4.4-6.5-7.3-8.4c-2.9-1.9-6.8-2.8-11.5-2.8c-1.8,0-3.8,0.3-5.8,0.9c-2,0.6-3.8,1.4-5.4,2.4c-1.6,1-3,2.4-4.1,4
		c-1.1,1.6-1.6,3.5-1.6,5.5c0,3.6,1.2,6.2,3.5,7.9c2.4,1.7,5.3,3.1,8.7,4.1c3.5,1,7.3,1.8,11.4,2.5c4.1,0.7,7.9,1.8,11.4,3.4
		c3.5,1.6,6.4,3.8,8.7,6.7c2.4,2.9,3.5,7.1,3.5,12.5c0,4.1-0.8,7.7-2.3,10.8c-1.6,3.1-3.7,5.6-6.4,7.7c-2.7,2.1-5.8,3.6-9.2,4.7
		c-3.5,1-7.1,1.6-10.9,1.6c-6.9,0-13.2-1.3-18.9-4c-5.7-2.6-10.1-6.7-13.2-12.3L811,128.1z"/>
</g>
</svg>
