<?xml version="1.0" encoding="utf-8"?>
<!-- Generator: Adobe Illustrator 28.2.0, SVG Export Plug-In . SVG Version: 6.00 Build 0)  -->
<svg version="1.1" id="Layer_1" xmlns="http://www.w3.org/2000/svg" xmlns:xlink="http://www.w3.org/1999/xlink" x="0px" y="0px"
	 viewBox="0 0 788.1 159.8" style="enable-background:new 0 0 788.1 159.8;" xml:space="preserve">
<style type="text/css">
	.st0{fill:#FFC108;}
	.st1{fill:#FFFFFF;}
</style>
<g>
	<path class="st0" d="M741.9,0.9c3.1-1.5,7.2-1.1,9.6,1.5c11.3,11.3,22.7,22.6,34,34c3.2,2.9,3.4,8.4,0.3,11.4
		c-5.1,5.2-10.3,10.3-15.4,15.5c-1.9,1.9-3.9,4.2-6.9,4.2c-11.7,0.3-23.4,0.4-35.1,0.5c-3.4,0.1-5.9-2.5-7.7-5.1
		c-1.1-2.3-0.8-5-0.8-7.5c0.3-10.4,0.1-20.8,0.5-31.1c0.1-3.9,3.8-6,6.1-8.7C731.8,10.8,736.5,5.3,741.9,0.9z"/>
</g>
<g>
	<path class="st1" d="M553,24.2c15.2-1.9,31.2,1.1,44.1,9.5c14.3,9.1,23.9,24.8,26.5,41.4c2.3,14.7,0.5,30.4-6.6,43.6
		c-8,15.3-23.1,26.4-39.9,30.1c-10.4,2.2-21.2,2.2-31.6-0.3c-16.2-3.9-30.9-14.6-38.7-29.5c-7.7-14.2-9.5-31.1-6.3-46.8
		c2.9-14.5,11.2-28,23.3-36.7C532.4,29.4,542.5,25.4,553,24.2 M554.8,37.7c-11.4,1.5-22,7.7-29.2,16.6
		c-15.4,19.3-14.7,49.6,2.1,67.9c8.8,9.7,21.8,15.1,34.8,14.7c13.6,0.1,27-6.4,35.4-17c7.7-9.7,11.5-22.2,11.1-34.5
		c-0.2-16-8.1-32-21.7-40.8C577.8,38.4,566,36.1,554.8,37.7z"/>
	<path class="st1" d="M642.1,34.1c10.5-9.1,25.2-11.7,38.6-9.8c9.9,1.1,19.4,5.9,25.6,13.7c-4,3.4-7.9,6.9-11.9,10.4
		c-8.2-12.9-27.3-14-39.4-6.3c-7.8,4.8-10.1,15.9-6.1,23.8c2.5,4.5,7.2,7.2,11.8,9.3c11.5,4.9,24.3,7,34.8,14.2
		c7.6,5.1,12.3,13.9,12.4,23.1c0.6,8.1-1.2,16.6-6.4,23.1c-8.3,11-22.8,15.1-36,15c-13.9,0-29-4.8-37-16.8
		c4.1-3.4,8.3-6.8,12.4-10.3c9.3,15.7,34,18.1,46.6,5.1c5.5-5.5,6.4-14.5,3.1-21.4c-3.9-7-12.2-9.4-19.3-11.9
		c-9.7-3.6-20.2-5.9-28.6-12.2C627.6,71.7,627.9,46.2,642.1,34.1z"/>
	<path class="st1" d="M0,26.9c31.2,0,62.5,0,93.8,0c0,4.5,0,9,0,13.5c-13.2,0-26.5,0-39.8,0c0,35.7,0,71.3,0,107
		c-4.8,0.1-9.7,0-14.5,0c0-35.7,0-71.3,0-107c-13.2,0-26.3,0-39.5,0C0,35.9,0,31.4,0,26.9z"/>
	<path class="st1" d="M335.8,45.2c4.5,0,8.9,0,13.4-0.1c0.3,7.5,0,15,0.1,22.6c7.8,0,15.7,0,23.5,0c0,3.8,0,7.7,0,11.5
		c-7.8,0-15.7,0-23.5,0c0,14.7-0.1,29.5,0.1,44.2c0,4.6,1,10.3,5.7,12.5c5.8,2.3,12.4,0.7,17.9-1.6c0,4.2,0.3,8.3,0.3,12.5
		c-6.9,2.6-14.5,3.3-21.8,2.3c-5-0.7-10-3.4-12.5-7.9c-2.8-5.1-2.9-11.1-3.1-16.7c-0.1-15.1,0-30.2,0-45.2c-5.7,0-11.5,0-17.2,0
		c0-3.8,0-7.7,0-11.5c5.7,0,11.5,0,17.2,0C335.8,60.2,335.7,52.7,335.8,45.2z"/>
	<path class="st1" d="M113.5,81c5.9-11.5,19.9-17.3,32.3-14.7c-0.3,4.6-0.6,9.2-0.9,13.9c-7.7-2-17-1.3-23,4.7
		c-6.1,6.5-7.3,15.9-7.4,24.5c-0.1,12.7,0,25.4,0,38.1c-4.5,0-9,0-13.5,0c0-20.7,0-41.3,0-62c0.1-5.9-0.5-11.8-0.8-17.8
		c4.3,0,8.6,0,13,0C113.3,72.1,113.6,76.5,113.5,81z"/>
	<path class="st1" d="M161.2,77.1c13.8-13.8,38.5-15.6,53.7-3c10.8,9.1,13.8,24.1,13,37.6c-21.4,0-42.7,0-64.1,0
		c1,9.3,6.3,18.4,14.9,22.7c5.9,3.2,13,3.1,19.5,1.8c6.8-1.5,12.5-5.9,16.9-11.3c3.4,2.6,6.8,5.4,10.3,8
		c-4.2,5.3-9.3,10.2-15.7,12.9c-8.3,3.5-17.5,4.3-26.4,3.3c-12.2-1.5-23.6-9.3-29-20.4C146.2,112.3,148.1,90.5,161.2,77.1
		 M177.8,80.6C170,84,165.2,92,163.9,100.1c16.6,0.1,33.1,0,49.7,0c-0.4-7.3-3.7-14.9-10.2-18.6C195.7,77.2,185.9,77.2,177.8,80.6z"
		/>
	<path class="st1" d="M254,80.8c8.5-16.2,32.2-19.7,46.4-9.2c7.6,5.8,10.4,15.7,10.6,24.8c0,17,0,34,0,51c-4.5,0-9,0-13.5,0
		c0-16.3,0-32.7,0-49c-0.1-6.7-2.2-14.2-8.2-17.9c-9.9-5.1-24-2-29.6,8c-4.4,7.5-4.8,16.4-4.7,24.9c0,11.3,0,22.7,0,34
		c-4.5,0-9,0-13.5,0c0-21,0-42,0-63c0-5.6-0.7-11.2-0.8-16.8c4.3,0,8.7,0,13,0C253.7,72,254,76.4,254,80.8z"/>
	<path class="st1" d="M380.8,78c9.9-10.1,24.9-13.5,38.6-12c8.4,0.8,17.4,4.2,21.7,11.8c6.3,10.4,4.8,23,5,34.6
		c0.3,11.7-0.8,23.4,1.2,35c-4.4,0-8.9,0-13.3-0.1c-0.6-3.9-0.8-7.8-0.6-11.7c-4.8,7-12.2,12.4-20.7,13.4
		c-9.4,1.1-19.8-0.2-27.4-6.4c-11-8.8-10.3-28.2,1.3-36.2c6-4.6,13.5-6.6,20.9-7.7c8.4-1,16.8-1.2,25.2-1.2c0-4.5-0.4-9.3-3.3-13
		c-3.2-4.3-8.7-6-13.8-6.4c-9.4-0.7-19,2.3-26.1,8.6C386.4,84,383.6,81,380.8,78 M398.5,113.3c-6.8,3.3-8.3,12.7-4.5,18.8
		c1.7,2.5,4.6,3.9,7.3,4.8c8.3,2.4,18.1,1.1,24.3-5.2c5.8-5.8,7.2-14.5,6.9-22.5C421.1,109.4,409,108,398.5,113.3z"/>
</g>
</svg>
