<?xml version="1.0" encoding="utf-8"?>
<!-- Generator: Adobe Illustrator 21.1.0, SVG Export Plug-In . SVG Version: 6.00 Build 0)  -->
<svg version="1.1" id="Layer_1" xmlns="http://www.w3.org/2000/svg" xmlns:xlink="http://www.w3.org/1999/xlink" x="0px" y="0px"
	 viewBox="0 0 141.7 78.8" style="enable-background:new 0 0 141.7 78.8;" xml:space="preserve">
<style type="text/css">
	.st0{fill:#512DA8;}
</style>
<g id="_x23_ffffffff">
	<path class="st0" d="M48.2,2.9c0.7-1,1.4-2,2.2-2.9c0.9,0,1.7,0.1,2.5,0.3c1.3,0.6,2.7,1,3.6,2.2c1.4,1.7,1.8,4,1.8,6.2
		c0.2,7.4-1.8,14.6-3.5,21.8c-2.3,9.5-6.5,18.4-10.9,27c-2.7,5.3-6.7,9.9-11.2,13.8c-4.4,4-10.2,6.4-16.1,7.1l0.1,0.4
		c-2.1,0.1-4.1,0.1-6.2,0l0.1-0.4c-2.5-0.6-4.7-2-6.9-3.4c-3.1-2.2-4.1-6.4-3.7-10c0.3-2.1-0.2-4.3,0.8-6.3c2-4.1,3.8-8.5,7.4-11.4
		c4.2-3.4,8.6-6.6,13.5-9c4.9-2.3,9.8-4.6,14.9-6.1c-3.2,2-6.7,3.2-10,4.8c-6,3-12.4,6.2-16.2,12c-2.7,3.9-3.4,8.7-3.7,13.3
		c0,2.4,0.1,5.3,2.4,6.8c2.9,1.5,6.2,0.4,9.2-0.4c3.6-1,7-2.8,9.7-5.4c6.9-6.9,12.5-15.3,14.9-24.8c1.2-4.4,2.5-8.9,3.6-13.4
		c1.4-5.8,2.9-11.7,2.8-17.7C49.2,5.9,48.4,4.5,48.2,2.9z"/>
	<path class="st0" d="M82,10.5c0.7-1.4,1.6-3.1,3.4-3.4C87,7,88.9,7.7,89.2,9.5c0.5,2.6,0,5.3-0.6,7.9c-1.2,5.8-2.5,11.5-3.9,17.2
		c-0.4,1.7-0.7,3.5-0.4,5.3c0.1,0.7,0.7,1.5,1.5,1.4c2-0.1,3.9-1,5.4-2.2c3.7-2.9,7.4-5.9,11.4-8.4c0.8-0.5,2.2-1,2.8,0.1
		c0.7,1.5,0.8,3.3,0.2,4.9c-0.8,1.7-2.5,2.8-3.9,3.9c-3.4,2.7-7.5,4.6-10.4,8c0.4,1.3,0.7,2.6,1.4,3.7c2.3,3.9,5.1,7.4,8.3,10.5
		c1.2-5.3,2.6-10.5,4.2-15.6c0.4-1.8,2-4.7-0.5-5.5c2.3-2,5.1-4.2,8.4-3.6c0.8,0.2,1.8,0.4,2.2,1.2c0.4,1.6-0.4,3.1-0.9,4.5
		c-2.8,7.9-4,16.6-8.6,23.7c0.9,2-1.5,2.8-3,3c-2,0.7-3.8-0.6-5.2-1.7c-6.3-4.9-9.7-12.3-15.5-17.7c-1.2,1.6-1.8,3.5-2.4,5.3
		c-1.4,4.4-2.7,8.9-4.7,13c-0.7,1.4-1.8,3.1-3.6,2.7c-1.1-0.3-3-0.6-3-2.2c0.3-3.5,2.5-6.5,3.6-9.7c2.2-6.3,3.5-12.9,5-19.5
		c1.2-5.9,2.5-11.7,3.2-17.7c0.2-0.7,0-1.3-0.3-1.9c-3.7,6.2-7.4,12.6-12.1,18.1c2.5-4.2,5.4-8.3,7.8-12.6
		C78.1,21,79.6,15.5,82,10.5z"/>
	<path class="st0" d="M114.8,17.3c1-3,5.6-4.1,7.6-1.4c1.7,2.4,1.1,5.6,2,8.3c2.3,8,9.4,14,17.3,15.9c-2.7,0.4-5.3-0.8-7.6-2
		c-5.9-3.4-9.7-9.2-14.5-13.8c-1.5-0.8-3.3-1.3-4.5-2.7C113.9,20.6,114.2,18.7,114.8,17.3z"/>
	<path class="st0" d="M55.8,41.1c1.6-1.5,3.9-1.9,6-1.5c1.4,0.4,2.2,1.6,3,2.6c0.6-0.8,1.2-1.6,1.8-2.4c-0.4,1-0.9,1.9-1.4,2.9
		c1.5,4.8,1.1,9.9,1.1,14.9c0.1,5.5-3.2,10.6-7.6,13.6c-1.7,1.1-3.6,2.5-5.8,2.2c-2.4-0.3-4.4-1.9-5.6-3.9c-2.1-2.8-1.6-6.5-1.4-9.8
		c0.2-4,2.3-7.6,4.3-11c-0.2-0.1-0.6-0.3-0.8-0.4C51.7,46.1,53.4,43.3,55.8,41.1 M56.9,52.1c-3.1,2.4-4.7,6.4-4.7,10.3
		c0,1.6,0.8,3.5,2.4,4.1c2.4-0.4,3.8-2.8,4.5-4.9c0.7-2.5,1.5-5.1,0.8-7.7C59.6,52.6,58.2,51.2,56.9,52.1z"/>
</g>
</svg>
