<?xml version="1.0" encoding="utf-8"?>
<!-- Generator: Adobe Illustrator 23.0.4, SVG Export Plug-In . SVG Version: 6.00 Build 0)  -->
<svg version="1.1" id="Layer_1" xmlns="http://www.w3.org/2000/svg" xmlns:xlink="http://www.w3.org/1999/xlink" x="0px" y="0px"
	 viewBox="0 0 500 500" style="enable-background:new 0 0 500 500;" xml:space="preserve">
<style type="text/css">
	.st0{fill:#FFFFFF;}
</style>
<path class="st0" d="M401.4,267.5c4.7,0,9.1-1.8,12.4-5.1c3.3-3.3,5.1-7.7,5.1-12.4c0-9.7-7.9-17.5-17.5-17.5H98.6
	c-9.7,0-17.5,7.9-17.5,17.5s7.9,17.5,17.5,17.5H401.4z"/>
<path class="st0" d="M371.3,144.5H128.7c-9.7,0-17.5,7.9-17.5,17.5s7.9,17.5,17.5,17.5h242.5c9.7,0,17.5-7.9,17.5-17.5
	S380.9,144.5,371.3,144.5z"/>
<path class="st0" d="M371.3,320.5H128.7c-9.7,0-17.5,7.9-17.5,17.5s7.9,17.5,17.5,17.5h242.5c9.7,0,17.5-7.9,17.5-17.5
	S380.9,320.5,371.3,320.5z"/>
</svg>
