<?xml version="1.0" encoding="utf-8"?>
<!-- Generator: Adobe Illustrator 23.0.2, SVG Export Plug-In . SVG Version: 6.00 Build 0)  -->
<svg version="1.1" id="Layer_1" xmlns="http://www.w3.org/2000/svg" xmlns:xlink="http://www.w3.org/1999/xlink" x="0px" y="0px"
	 viewBox="0 0 1133.9 1133.9" style="enable-background:new 0 0 1133.9 1133.9;" xml:space="preserve">
<style type="text/css">
	.st0{fill:#3F51B5;}
</style>
<path class="st0" d="M475.1,15.6c106.9-17.9,219.5-4.2,317.8,42.1c112.8,51.7,205.9,143.7,261.4,254.4
	c41.8,82.6,62.6,175.6,60.1,268.2c-1.7,127.2-48.7,253.2-130.4,350.8c-74,89.5-176.9,154.6-289.8,181.9
	c-93.8,22.4-193.9,20-286.1-8.8C292.9,1068.9,191,993.3,122,894.6C52.7,796.5,16.2,675.9,19.6,555.8
	c1.5-128.5,49.6-255.6,132.5-353.6C233.6,104.9,349.8,37.1,475.1,15.6 M651.7,244.8c-62.5,32-122.3,68.9-183.6,103.1
	c-7.2-8.6-16.6-19.3-29.3-15.9c-18.9,6.4-21.8,29.7-21.8,46.8c-87.2,59.8-175.6,118.2-257.3,185.6c-25.7,22.2-53,45.2-67.7,76.6
	c-9.5,19.4,9.4,44.5,30.8,39.3c16.2-5.7,28.6-18.4,42.1-28.5c39-32.6,80.7-61.8,120.2-93.8c42.4-33.2,86.2-64.7,132.5-92.3
	c-10.3,110.9-11.8,222.5-25.4,333.1c-3.9,34.1-5.6,68.5-8.6,102.6c-1.1,10.3,0.6,29.2,15.2,26.2c10.4-5.1,16.3-15.6,21.3-25.5
	c15.4-31.6,24.3-65.8,29.8-100.4c14.7-85.7,25-172.1,31.9-258.7c0.8-40.2,0.3-80.5,0.1-120.8c84-56.6,176.7-100.8,253.2-168
	c8.3-7.7,19.4-15.7,19.3-28.4c1.1-11.9-12.2-21.5-23.3-17C703,216.8,677.6,231.7,651.7,244.8 M830.6,258.9
	c-17.4,9.9-19.5,31.3-25.3,48.4c-24.2,74-43.2,150.8-83.4,218.1c-12.3,19.2-23.9,39.9-43.2,53.1c-30.4-39.3-22-93.2-44.6-135.9
	c-8.3-12-16.1-26.1-29.9-32.4c-17.1,1.1-24.9,17.9-33.6,30.1c-15.2,21.5-17.1,48.6-21,73.7c-3.4,30.3-10.1,60.3-10.3,90.9
	c-2.3,63.4-8.4,126.7-5.8,190.2c0.8,8.2,1.3,19.9,10.8,22.6c9.2,3.3,17.3-5.5,19.4-13.8c7.9-25.9,11-53.2,15.8-79.8
	c4-33,11.2-65.5,15-98.5c4.3-27.9,7.5-56.3,16.8-83.2c12.8,31.5,32,72.2,71.5,72.5c28-7.3,46.2-31.9,62.1-54.3
	c28-35.7,44.4-78.4,63.3-119.1c0.4,49-2.5,98.2,2.6,147c4.2,87.6,19.3,174.4,41.8,259c2,10.4,12.1,20.3,23.3,17.8
	c10.7-5.8,8.9-19.3,9-29.5c-1.4-76.9-4.8-153.8-5.1-230.7c0.5-82.6,4-165.1,8.1-247.6c1.6-28.2,6.4-59.4-8.8-84.9
	C870,255.8,847.2,251.4,830.6,258.9z"/>
</svg>
